<svg width="607" height="453" viewBox="0 0 607 453" fill="none" xmlns="http://www.w3.org/2000/svg">
<rect width="607" height="453" fill="white"/>
<path d="M123.326 116.023L108.227 161.318C108.076 161.772 107.957 162.236 107.873 162.707L89.4214 265.111C88.5908 269.721 91.0717 274.29 95.3906 276.104L138 294L207.23 325.648C207.743 325.882 208.274 326.073 208.818 326.217L298.388 350.039C300.717 350.659 302.745 352.099 304.096 354.095L338.934 405.521C341.811 409.769 347.436 411.15 351.954 408.717L421.286 371.385C421.761 371.129 422.256 370.912 422.767 370.736L474.186 353.005C477.752 351.775 480.322 348.644 480.834 344.907L492.696 258.22C492.896 256.758 493.417 255.359 494.222 254.122L541.062 182.127C544.257 177.217 542.566 170.625 537.402 167.858L463.88 128.471C463.295 128.158 462.742 127.787 462.231 127.364L391.392 68.8043C389.231 67.0175 386.418 66.2204 383.641 66.6074L267.549 82.7842C266.522 82.9272 265.48 82.9098 264.459 82.7327L173.387 66.9344C170.03 66.3521 166.608 67.5187 164.306 70.03L125.441 112.428C124.491 113.464 123.77 114.689 123.326 116.023Z" fill="#86BBD8" stroke="#86BBD8"/>
<path d="M181.16 213.32C180.813 213.32 180.52 213.2 180.28 212.96C180.067 212.747 179.96 212.467 179.96 212.12V205.04C176.627 204.747 173.813 203.573 171.52 201.52C169.227 199.467 167.627 196.747 166.72 193.36C166.533 192.667 166.4 191.92 166.32 191.12C166.24 190.293 166.2 189.467 166.2 188.64C166.2 188 166.227 187.373 166.28 186.76C166.333 186.12 166.4 185.507 166.48 184.92C166.533 184.547 166.667 184.28 166.88 184.12C167.12 183.96 167.373 183.88 167.64 183.88C168.04 183.88 168.36 184 168.6 184.24C168.84 184.453 168.933 184.787 168.88 185.24C168.8 185.773 168.747 186.32 168.72 186.88C168.693 187.413 168.68 187.947 168.68 188.48C168.68 190.053 168.84 191.547 169.16 192.96C169.72 194.987 170.573 196.733 171.72 198.2C172.893 199.667 174.293 200.8 175.92 201.6C177.547 202.373 179.333 202.76 181.28 202.76C183.253 202.76 185.04 202.36 186.64 201.56C188.267 200.733 189.64 199.587 190.76 198.12C191.907 196.627 192.733 194.88 193.24 192.88C193.4 192.213 193.507 191.56 193.56 190.92C193.64 190.28 193.68 189.64 193.68 189C193.68 188.36 193.653 187.733 193.6 187.12C193.547 186.48 193.467 185.853 193.36 185.24C193.333 184.733 193.44 184.387 193.68 184.2C193.947 183.987 194.227 183.88 194.52 183.88C194.787 183.88 195.04 183.973 195.28 184.16C195.52 184.32 195.68 184.56 195.76 184.88C195.867 185.547 195.933 186.227 195.96 186.92C196.013 187.587 196.04 188.267 196.04 188.96C196.04 189.707 196 190.453 195.92 191.2C195.867 191.92 195.76 192.627 195.6 193.32C194.773 196.76 193.187 199.507 190.84 201.56C188.52 203.613 185.693 204.773 182.36 205.04V212.12C182.36 212.547 182.227 212.853 181.96 213.04C181.72 213.227 181.453 213.32 181.16 213.32ZM211.587 213.48C209 213.48 206.747 212.947 204.827 211.88C202.933 210.813 201.453 209.347 200.387 207.48C199.347 205.587 198.827 203.4 198.827 200.92C198.827 198.36 199.347 196.147 200.387 194.28C201.427 192.387 202.893 190.92 204.787 189.88C206.707 188.84 208.973 188.32 211.587 188.32C214.253 188.32 216.533 188.84 218.427 189.88C220.347 190.893 221.813 192.347 222.827 194.24C223.84 196.107 224.347 198.333 224.347 200.92C224.347 203.453 223.827 205.667 222.787 207.56C221.747 209.453 220.267 210.907 218.347 211.92C216.453 212.96 214.2 213.48 211.587 213.48ZM211.587 210.96C214.867 210.96 217.387 210.067 219.147 208.28C220.933 206.493 221.827 204.04 221.827 200.92C221.827 197.667 220.907 195.173 219.067 193.44C217.227 191.707 214.733 190.84 211.587 190.84C208.44 190.84 205.947 191.733 204.107 193.52C202.267 195.307 201.347 197.773 201.347 200.92C201.347 203 201.787 204.787 202.667 206.28C203.547 207.773 204.76 208.933 206.307 209.76C207.853 210.56 209.613 210.96 211.587 210.96ZM251.658 212.72C251.444 212.72 251.231 212.653 251.018 212.52C250.804 212.413 250.644 212.227 250.538 211.96C250.111 210.973 249.778 209.893 249.538 208.72C249.298 207.547 249.111 206.427 248.978 205.36C248.391 206.693 247.604 207.907 246.618 209C245.631 210.067 244.511 210.92 243.258 211.56C242.004 212.2 240.658 212.56 239.218 212.64C236.498 212.773 234.271 212.333 232.538 211.32C230.831 210.333 229.564 208.933 228.738 207.12C227.938 205.28 227.538 203.213 227.538 200.92C227.538 199.267 227.724 197.56 228.098 195.8C228.471 194.013 229.004 192.227 229.698 190.44C229.884 189.933 230.244 189.68 230.778 189.68C231.151 189.68 231.458 189.787 231.698 190C231.938 190.213 232.058 190.48 232.058 190.8C232.058 190.933 232.018 191.107 231.938 191.32C231.271 193.027 230.751 194.707 230.378 196.36C230.031 198.013 229.858 199.587 229.858 201.08C229.858 202.867 230.151 204.467 230.738 205.88C231.324 207.293 232.244 208.4 233.498 209.2C234.751 209.973 236.378 210.32 238.378 210.24C240.351 210.16 242.098 209.507 243.618 208.28C245.164 207.053 246.378 205.373 247.258 203.24C248.138 201.08 248.578 198.627 248.578 195.88C248.578 195.4 248.551 194.907 248.498 194.4C248.471 193.893 248.431 193.387 248.378 192.88C248.324 192.427 248.431 192.12 248.698 191.96C248.991 191.8 249.284 191.72 249.578 191.72C249.951 191.747 250.258 191.88 250.498 192.12C250.764 192.333 250.898 192.627 250.898 193C250.898 194.067 250.924 195.28 250.978 196.64C251.058 198 251.151 199.413 251.258 200.88C251.391 202.347 251.538 203.76 251.698 205.12C251.858 206.48 252.044 207.693 252.258 208.76C252.471 209.8 252.711 210.587 252.978 211.12C253.031 211.2 253.058 211.28 253.058 211.36C253.058 211.44 253.058 211.52 253.058 211.6C253.058 211.947 252.911 212.213 252.618 212.4C252.324 212.613 252.004 212.72 251.658 212.72ZM262.008 212.72C261.662 212.72 261.368 212.6 261.128 212.36C260.915 212.147 260.808 211.867 260.808 211.52C260.728 210.053 260.595 208.467 260.408 206.76C260.248 205.053 260.035 203.32 259.768 201.56C259.528 199.773 259.248 198.08 258.928 196.48C258.608 194.853 258.275 193.413 257.928 192.16C257.875 191.947 257.848 191.8 257.848 191.72C257.848 191.373 257.968 191.107 258.208 190.92C258.475 190.733 258.755 190.64 259.048 190.64C259.315 190.64 259.555 190.72 259.768 190.88C260.008 191.013 260.168 191.213 260.248 191.48C260.542 192.413 260.822 193.52 261.088 194.8C261.355 196.08 261.595 197.373 261.808 198.68C262.022 199.96 262.182 201.093 262.288 202.08C262.795 199.973 263.648 198.16 264.848 196.64C266.075 195.093 267.555 193.907 269.288 193.08C271.048 192.253 272.955 191.84 275.008 191.84C276.688 191.84 278.382 192.147 280.088 192.76C280.622 193 280.888 193.36 280.888 193.84C280.888 194.64 280.502 195.04 279.728 195.04C279.542 195.04 279.395 195.027 279.288 195C278.008 194.573 276.608 194.36 275.088 194.36C272.902 194.36 271.062 194.8 269.568 195.68C268.075 196.56 266.862 197.787 265.928 199.36C265.022 200.933 264.355 202.747 263.928 204.8C263.502 206.853 263.262 209.067 263.208 211.44C263.208 211.867 263.075 212.187 262.808 212.4C262.568 212.613 262.302 212.72 262.008 212.72ZM323.375 212.92C323.081 212.92 322.801 212.8 322.535 212.56C322.295 212.347 322.175 212.067 322.175 211.72V186.48L308.455 186.2C308.055 186.2 307.748 186.067 307.535 185.8C307.348 185.533 307.255 185.267 307.255 185C307.335 184.2 307.748 183.8 308.495 183.8L338.255 184.36C338.601 184.36 338.881 184.48 339.095 184.72C339.335 184.933 339.455 185.227 339.455 185.6C339.455 185.947 339.335 186.227 339.095 186.44C338.881 186.653 338.588 186.76 338.215 186.76L324.575 186.52V211.72C324.575 212.12 324.441 212.413 324.175 212.6C323.935 212.813 323.668 212.92 323.375 212.92ZM355.944 213.24C355.731 213.267 355.504 213.28 355.264 213.28C355.051 213.28 354.837 213.28 354.624 213.28C352.251 213.28 350.131 212.773 348.264 211.76C346.397 210.773 344.931 209.4 343.864 207.64C342.797 205.88 342.264 203.867 342.264 201.6C342.264 199.467 342.677 197.507 343.504 195.72C344.357 193.907 345.557 192.4 347.104 191.2C348.651 190 350.477 189.24 352.584 188.92C352.877 188.867 353.197 188.827 353.544 188.8C353.891 188.773 354.237 188.76 354.584 188.76C356.024 188.76 357.517 188.96 359.064 189.36C360.637 189.733 361.957 190.267 363.024 190.96C363.157 190.667 363.371 190.493 363.664 190.44C363.957 190.36 364.197 190.347 364.384 190.4C364.677 190.427 364.904 190.56 365.064 190.8C365.224 191.04 365.304 191.32 365.304 191.64C365.277 192.253 365.251 192.853 365.224 193.44C365.224 194.027 365.224 194.613 365.224 195.2C365.224 198.187 365.437 200.84 365.864 203.16C366.317 205.48 367.157 207.507 368.384 209.24C368.544 209.48 368.624 209.72 368.624 209.96C368.624 210.28 368.491 210.547 368.224 210.76C367.984 210.973 367.717 211.08 367.424 211.08C367.024 211.08 366.691 210.907 366.424 210.56C366.157 210.187 365.891 209.773 365.624 209.32C365.384 208.867 365.184 208.467 365.024 208.12C363.931 209.64 362.597 210.813 361.024 211.64C359.451 212.493 357.757 213.027 355.944 213.24ZM355.144 210.92C356.957 210.92 358.624 210.413 360.144 209.4C361.691 208.387 362.944 207 363.904 205.24C363.504 203.747 363.211 202.013 363.024 200.04C362.837 198.067 362.757 196.013 362.784 193.88C362.251 193.293 361.544 192.8 360.664 192.4C359.784 192 358.824 191.693 357.784 191.48C356.744 191.267 355.717 191.16 354.704 191.16C354.037 191.16 353.411 191.2 352.824 191.28C352.237 191.36 351.691 191.507 351.184 191.72C349.157 192.467 347.544 193.72 346.344 195.48C345.171 197.213 344.584 199.2 344.584 201.44C344.584 203.413 345.051 205.107 345.984 206.52C346.944 207.933 348.224 209.027 349.824 209.8C351.424 210.547 353.197 210.92 355.144 210.92ZM385.074 213.44C384.088 213.44 383.074 213.347 382.034 213.16C380.994 212.973 379.954 212.733 378.914 212.44C378.381 212.28 378.114 211.947 378.114 211.44C378.114 210.613 378.461 210.2 379.154 210.2C379.314 210.2 379.448 210.213 379.554 210.24C380.861 210.587 381.901 210.84 382.674 211C383.474 211.187 384.208 211.28 384.874 211.28C385.701 211.28 386.488 211.147 387.234 210.88C387.981 210.64 388.594 210.307 389.074 209.88C389.581 209.427 389.834 208.907 389.834 208.32C389.834 207.707 389.541 207.24 388.954 206.92C388.368 206.573 387.581 206.307 386.594 206.12C385.608 205.907 384.488 205.733 383.234 205.6C382.008 205.44 380.741 205.267 379.434 205.08C376.848 204.627 374.861 203.8 373.474 202.6C372.114 201.373 371.434 199.507 371.434 197C371.434 195.427 371.781 194.027 372.474 192.8C373.194 191.573 374.154 190.547 375.354 189.72C376.554 188.867 377.914 188.227 379.434 187.8C380.981 187.347 382.581 187.12 384.234 187.12C385.701 187.12 387.141 187.307 388.554 187.68C389.968 188.053 391.234 188.627 392.354 189.4C392.728 189.667 392.914 189.96 392.914 190.28C392.914 190.52 392.834 190.76 392.674 191C392.541 191.187 392.381 191.32 392.194 191.4C392.034 191.453 391.874 191.48 391.714 191.48C391.501 191.48 391.288 191.413 391.074 191.28C390.168 190.667 389.128 190.24 387.954 190C386.781 189.733 385.581 189.6 384.354 189.6C382.434 189.6 380.661 189.88 379.034 190.44C377.408 191 376.101 191.84 375.114 192.96C374.154 194.053 373.674 195.4 373.674 197C373.674 198.813 374.181 200.16 375.194 201.04C376.234 201.893 377.768 202.493 379.794 202.84C381.261 203.08 382.714 203.293 384.154 203.48C385.621 203.64 386.954 203.88 388.154 204.2C389.354 204.52 390.314 205 391.034 205.64C391.781 206.253 392.154 207.133 392.154 208.28C392.154 209.4 391.834 210.347 391.194 211.12C390.554 211.893 389.688 212.467 388.594 212.84C387.528 213.24 386.354 213.44 385.074 213.44ZM399.862 213.4C399.248 213.4 398.862 213.067 398.702 212.4C398.222 209.093 397.862 205.6 397.622 201.92C397.408 198.213 397.302 194.547 397.302 190.92C397.302 188.733 397.342 186.627 397.422 184.6C397.422 184.173 397.555 183.88 397.822 183.72C398.115 183.533 398.395 183.44 398.662 183.44C399.008 183.467 399.288 183.6 399.502 183.84C399.715 184.053 399.822 184.347 399.822 184.72C399.795 185.44 399.768 186.48 399.742 187.84C399.715 189.173 399.702 190.587 399.702 192.08C399.702 193.307 399.702 194.52 399.702 195.72C399.728 196.92 399.755 197.987 399.782 198.92C399.835 199.827 399.875 200.507 399.902 200.96C400.568 200.08 401.542 199.213 402.822 198.36C404.128 197.48 405.555 196.653 407.102 195.88C408.675 195.107 410.222 194.427 411.742 193.84C413.288 193.227 414.648 192.733 415.822 192.36C415.982 192.307 416.102 192.28 416.182 192.28C416.502 192.28 416.795 192.413 417.062 192.68C417.328 192.92 417.462 193.213 417.462 193.56C417.462 193.773 417.382 193.987 417.222 194.2C417.088 194.413 416.875 194.56 416.582 194.64C414.208 195.547 412.022 196.413 410.022 197.24C408.048 198.04 406.342 198.88 404.902 199.76C403.462 200.613 402.382 201.573 401.662 202.64C402.408 203.44 403.395 204.2 404.622 204.92C405.875 205.64 407.235 206.32 408.702 206.96C410.195 207.573 411.702 208.147 413.222 208.68C414.742 209.213 416.155 209.693 417.462 210.12C418.022 210.36 418.302 210.733 418.302 211.24C418.302 211.347 418.275 211.48 418.222 211.64C418.008 212.2 417.662 212.48 417.182 212.48C417.102 212.48 416.955 212.453 416.742 212.4C416.635 212.347 416.128 212.16 415.222 211.84C414.342 211.547 413.222 211.147 411.862 210.64C410.528 210.16 409.115 209.613 407.622 209C406.155 208.36 404.755 207.667 403.422 206.92C402.088 206.173 401.008 205.413 400.182 204.64C400.315 205.92 400.422 207 400.502 207.88C400.582 208.733 400.662 209.48 400.742 210.12C400.848 210.787 400.955 211.427 401.062 212.04C401.115 212.493 401.008 212.827 400.742 213.04C400.475 213.28 400.182 213.4 399.862 213.4ZM434.332 213.44C433.346 213.44 432.332 213.347 431.292 213.16C430.252 212.973 429.212 212.733 428.172 212.44C427.639 212.28 427.372 211.947 427.372 211.44C427.372 210.613 427.719 210.2 428.412 210.2C428.572 210.2 428.706 210.213 428.812 210.24C430.119 210.587 431.159 210.84 431.932 211C432.732 211.187 433.466 211.28 434.132 211.28C434.959 211.28 435.746 211.147 436.492 210.88C437.239 210.64 437.852 210.307 438.332 209.88C438.839 209.427 439.092 208.907 439.092 208.32C439.092 207.707 438.799 207.24 438.212 206.92C437.626 206.573 436.839 206.307 435.852 206.12C434.866 205.907 433.746 205.733 432.492 205.6C431.266 205.44 429.999 205.267 428.692 205.08C426.106 204.627 424.119 203.8 422.732 202.6C421.372 201.373 420.692 199.507 420.692 197C420.692 195.427 421.039 194.027 421.732 192.8C422.452 191.573 423.412 190.547 424.612 189.72C425.812 188.867 427.172 188.227 428.692 187.8C430.239 187.347 431.839 187.12 433.492 187.12C434.959 187.12 436.399 187.307 437.812 187.68C439.226 188.053 440.492 188.627 441.612 189.4C441.986 189.667 442.172 189.96 442.172 190.28C442.172 190.52 442.092 190.76 441.932 191C441.799 191.187 441.639 191.32 441.452 191.4C441.292 191.453 441.132 191.48 440.972 191.48C440.759 191.48 440.546 191.413 440.332 191.28C439.426 190.667 438.386 190.24 437.212 190C436.039 189.733 434.839 189.6 433.612 189.6C431.692 189.6 429.919 189.88 428.292 190.44C426.666 191 425.359 191.84 424.372 192.96C423.412 194.053 422.932 195.4 422.932 197C422.932 198.813 423.439 200.16 424.452 201.04C425.492 201.893 427.026 202.493 429.052 202.84C430.519 203.08 431.972 203.293 433.412 203.48C434.879 203.64 436.212 203.88 437.412 204.2C438.612 204.52 439.572 205 440.292 205.64C441.039 206.253 441.412 207.133 441.412 208.28C441.412 209.4 441.092 210.347 440.452 211.12C439.812 211.893 438.946 212.467 437.852 212.84C436.786 213.24 435.612 213.44 434.332 213.44Z" fill="black"/>
</svg>
