<?xml version="1.0" encoding="UTF-8"?>
<svg version="1.1" xmlns="http://www.w3.org/2000/svg" width="607" height="453">
<path d="M0 0 C200.31 0 400.62 0 607 0 C607 149.49 607 298.98 607 453 C406.69 453 206.38 453 0 453 C0 303.51 0 154.02 0 0 Z " fill="#FEFEFE" transform="translate(0,0)"/>
<path d="M0 0 C4.29498872 0.79685426 8.59300364 1.57700858 12.89108276 2.35699463 C13.77004715 2.51671753 14.64901154 2.67644043 15.55461121 2.84100342 C24.89452204 4.53064304 34.25331276 6.10226902 43.61764526 7.64996338 C44.38494965 7.77688568 45.15225403 7.90380798 45.94281006 8.03457642 C49.35761683 8.59895894 52.77273821 9.16134396 56.1882019 9.72174072 C58.39719448 10.08470042 60.60502447 10.45482348 62.81149292 10.83282471 C73.91299753 12.62182852 84.69167716 10.78745879 95.63693237 8.91339111 C104.38786289 7.42073558 113.14579613 6.28807292 121.96871948 5.3147583 C126.69437833 4.78297363 131.3580426 4.16302006 136.03170776 3.27886963 C141.84577018 2.1793324 147.6769056 1.4937829 153.55514526 0.83746338 C162.2019868 -0.15521954 170.79434664 -1.29249969 179.36569214 -2.81072998 C191.43148489 -4.86915865 191.43148489 -4.86915865 196.68014526 -2.04144287 C199.67904657 0.37479147 202.64997546 2.80984766 205.55514526 5.33746338 C210.09012327 9.23374896 214.70006521 12.99344305 219.43014526 16.64996338 C225.20301737 21.12434352 230.7327669 25.83322702 236.2260437 30.64508057 C240.4050434 34.29979384 244.66203928 37.81766102 249.03170776 41.24371338 C250.95947311 42.79547496 252.83730633 44.37066937 254.70358276 45.99371338 C255.25900757 46.47437256 255.81443237 46.95503174 256.38668823 47.45025635 C257.45118666 48.37518928 258.51067419 49.30594303 259.56344604 50.24420166 C267.52748384 57.1460273 277.18665452 61.77781326 286.43014526 66.71246338 C287.54566772 67.31083008 288.66119019 67.90919678 289.81051636 68.5256958 C295.22877042 71.43078139 300.65186686 74.32677606 306.07513428 77.2224884 C312.55053807 80.68010886 319.02181329 84.14516449 325.48580933 87.62408447 C327.41343936 88.66088326 329.34229572 89.69540863 331.2729187 90.72662354 C333.53983498 91.94011164 335.79877683 93.16700584 338.05514526 94.39996338 C338.67727905 94.72972168 339.29941284 95.05947998 339.94039917 95.39923096 C343.72073751 97.49251633 346.34405081 99.53561246 348.55514526 103.27496338 C349.6182272 109.67623533 347.1782257 113.43749235 343.80514526 118.58746338 C343.31143433 119.36726563 342.81772339 120.14706787 342.30905151 120.95050049 C340.74461445 123.40577018 339.15514038 125.84273637 337.55514526 128.27496338 C336.8020105 129.42061768 336.8020105 129.42061768 336.03366089 130.5894165 C333.54789759 134.35542914 331.04012621 138.10610282 328.51998901 141.84918213 C325.67170342 146.08592585 322.8839249 150.35933529 320.11764526 154.64996338 C319.67944458 155.32954102 319.2412439 156.00911865 318.7897644 156.70928955 C317.87585103 158.12695291 316.96203527 159.5446792 316.04830933 160.96246338 C313.20595745 165.36448382 310.34875448 169.7568617 307.49264526 174.14996338 C306.93198364 175.01282959 306.37132202 175.8756958 305.79367065 176.76470947 C305.27023071 177.56989014 304.74679077 178.3750708 304.20748901 179.20465088 C303.74334595 179.91863037 303.27920288 180.63260986 302.80099487 181.3682251 C301.72833003 183.0099089 300.6429427 184.64326723 299.55514526 186.27496338 C299.03640578 189.02325298 298.61467646 191.7209727 298.25827026 194.49078369 C298.14414795 195.32853836 298.03002563 196.16629303 297.91244507 197.0294342 C297.5362586 199.80308036 297.17089188 202.57804805 296.80514526 205.35308838 C296.54457836 207.28270454 296.28317337 209.21220769 296.02096558 211.14160156 C295.33134896 216.22781837 294.65018272 221.31512604 293.97164917 226.40283203 C292.88715011 234.532284 291.79483339 242.66065526 290.69320679 250.78780365 C290.31092617 253.62271834 289.93524185 256.45845409 289.56002808 259.29431152 C289.32429468 261.0434323 289.08830546 262.79251862 288.85202026 264.54156494 C288.75014404 265.32519913 288.64826782 266.10883331 288.54330444 266.91621399 C286.87773746 279.09579734 286.87773746 279.09579734 283.07418823 282.48687744 C278.58465288 284.76808716 274.037786 286.34618166 269.25045776 287.88433838 C267.20093748 288.56390188 265.15145972 289.24359364 263.10202026 289.92340088 C259.90697091 290.97119772 256.71068129 292.01502952 253.51315308 293.05523682 C241.3594158 297.02326371 229.69546059 301.13348421 218.44778442 307.2489624 C216.47411939 308.31888756 214.48755339 309.36069483 212.49606323 310.39703369 C208.29619375 312.58536791 204.11219377 314.80280659 199.93014526 317.02496338 C198.44431136 317.812735 196.95847144 318.60049528 195.47262573 319.38824463 C184.4303329 325.24917127 173.43432774 331.19118572 162.48922729 337.23199463 C161.85098022 337.57617432 161.21273315 337.920354 160.55514526 338.27496338 C159.89369507 338.64234619 159.23224487 339.009729 158.55075073 339.38824463 C155.34236319 340.81384575 151.94874288 341.02067012 148.55514526 340.27496338 C144.28478429 337.34418378 141.65056755 333.83389923 138.91452026 329.52105713 C138.03684985 328.17155552 137.15857441 326.82244725 136.27975464 325.47369385 C135.83108032 324.77991638 135.38240601 324.08613892 134.9201355 323.37133789 C132.71879972 319.9904901 130.45756561 316.65069732 128.19577026 313.31011963 C127.53019104 312.32524063 127.53019104 312.32524063 126.85116577 311.32046509 C125.95386667 309.99279505 125.05620267 308.66537154 124.15817261 307.3381958 C123.24809115 305.99245103 122.33892691 304.64608557 121.43063354 303.2991333 C120.97801147 302.62793457 120.5253894 301.95673584 120.05905151 301.26519775 C119.61453644 300.60560562 119.17002136 299.94601349 118.71203613 299.26643372 C117.41691823 297.35965883 116.10095171 295.46860557 114.78317261 293.57745361 C112.55514526 290.27496338 112.55514526 290.27496338 111.25289917 287.75567627 C108.18481346 282.20861401 103.7185889 280.95885431 97.92233276 279.26324463 C94.4377814 278.31648631 90.9365183 277.44920995 87.43014526 276.58746338 C85.69896793 276.13901806 83.96848981 275.68786442 82.23873901 275.23394775 C77.0205489 273.87460407 71.78969219 272.56967203 66.55514526 271.27496338 C63.83763566 270.60115215 61.12028559 269.92672008 58.40332031 269.25071716 C56.72731559 268.8342037 55.05081873 268.4196629 53.37371826 268.00758362 C46.89514694 266.40285651 40.51207575 264.54470052 34.13327026 262.58355713 C31.46412317 261.776945 28.81701157 261.11130949 26.0920105 260.50714111 C16.2492582 258.31566936 7.51116879 254.91416619 -1.5730896 250.56723022 C-3.96479432 249.42302377 -6.36445291 248.2971464 -8.76663208 247.17510986 C-12.07970443 245.62615761 -15.38982357 244.07118824 -18.69729614 242.51031494 C-25.63374675 239.23994641 -32.59468033 236.0243003 -39.56985474 232.83746338 C-40.21643036 232.54112 -40.86300598 232.24477661 -41.5291748 231.93945312 C-50.24806929 227.95190984 -59.03691438 224.15778485 -67.89016724 220.47808838 C-68.86909943 220.07102158 -69.84803162 219.66395477 -70.85662842 219.24455261 C-75.69659447 217.23586425 -80.54173871 215.24090973 -85.39456177 213.26348877 C-87.16656396 212.5343125 -88.93853798 211.80506776 -90.71047974 211.07574463 C-91.92539597 210.58760284 -91.92539597 210.58760284 -93.16485596 210.08959961 C-97.45552524 208.31575607 -101.05546693 206.55232905 -104.44485474 203.27496338 C-106.49719122 197.11795392 -105.36293264 190.81357684 -104.23782349 184.54840088 C-104.11176224 183.83825836 -103.98570099 183.12811584 -103.8558197 182.39645386 C-103.58916471 180.90176441 -103.31923815 179.40765522 -103.0461731 177.91412354 C-102.63739724 175.67755288 -102.23844286 173.43941394 -101.84133911 171.20074463 C-100.64931657 164.53657561 -99.3890452 157.90227456 -97.92922974 151.29058838 C-95.98292897 142.38465267 -94.59034868 133.39329859 -93.14529419 124.39556885 C-92.27830397 119.01614264 -91.38020831 113.64293839 -90.44485474 108.27496338 C-90.30725739 107.48022614 -90.16966003 106.68548889 -90.02789307 105.8666687 C-87.82653931 93.39784519 -84.66211646 81.43563435 -80.65603638 69.42608643 C-79.74997695 66.69018571 -78.88335917 63.94361662 -78.01712036 61.19488525 C-74.66628555 50.88205584 -71.26653693 43.0291615 -63.44485474 35.27496338 C-62.46875244 34.27602051 -62.46875244 34.27602051 -61.47293091 33.25689697 C-60.36087446 32.13383657 -59.23659532 31.02276222 -58.10110474 29.92340088 C-56.41872668 28.24895856 -54.86816308 26.51123337 -53.31985474 24.71246338 C-49.40916632 20.17358745 -45.3161409 15.81230694 -41.22610474 11.43585205 C-37.65959029 7.61066163 -34.17461953 3.73530485 -30.81204224 -0.27191162 C-24.03102428 -7.47916499 -8.79383228 -1.632786 0 0 Z " fill="#86BAD7" transform="translate(194.44485473632813,69.72503662109375)"/>
<path d="M0 0 C3.1985654 1.74952846 5.02024638 3.15341645 7.05859375 6.2109375 C7.32421875 8.76953125 7.32421875 8.76953125 7.30859375 11.6484375 C7.31375 12.59589844 7.31890625 13.54335937 7.32421875 14.51953125 C6.94902929 18.32108331 5.94511022 20.41021294 3.12109375 22.9609375 C-1.55408038 24.86917184 -5.96901861 25.00448106 -10.94140625 24.2109375 C-14.61046633 22.3514721 -16.62197269 20.16923819 -17.94140625 16.2109375 C-18.55553146 12.19968931 -18.80398553 8.68496538 -16.70703125 5.1015625 C-12.26170453 -0.22402694 -7.01937185 -2.85294389 0 0 Z " fill="#82B6D2" transform="translate(216.94140625,188.7890625)"/>
<path d="M0 0 C0.83402344 0.01546875 1.66804688 0.0309375 2.52734375 0.046875 C5.10349861 0.25328494 7.54133565 0.69074351 10.0625 1.25 C10.11148437 2.13042969 10.16046875 3.01085937 10.2109375 3.91796875 C10.28570312 5.07941406 10.36046875 6.24085938 10.4375 7.4375 C10.50710938 8.58605469 10.57671875 9.73460937 10.6484375 10.91796875 C10.91430843 14.21899434 10.91430843 14.21899434 12.1640625 16.98828125 C13.0625 19.25 13.0625 19.25 12.0625 22.25 C10.7425 22.25 9.4225 22.25 8.0625 22.25 C7.10150391 22.73339844 7.10150391 22.73339844 6.12109375 23.2265625 C2.32183104 25.11538002 -1.80507159 24.79920442 -5.9375 24.25 C-9.44002011 22.20686327 -11.71111702 20.15212767 -12.9375 16.25 C-13.41107835 11.98779488 -13.23580613 9.8039971 -11.1875 6 C-7.75397805 1.80347317 -5.53608249 -0.17060347 0 0 Z " fill="#81B4D1" transform="translate(354.9375,188.75)"/>
<path d="M0 0 C3.1985654 1.74952846 5.02024638 3.15341645 7.05859375 6.2109375 C7.32421875 8.76953125 7.32421875 8.76953125 7.30859375 11.6484375 C7.31375 12.59589844 7.31890625 13.54335937 7.32421875 14.51953125 C6.94902929 18.32108331 5.94511022 20.41021294 3.12109375 22.9609375 C-1.55408038 24.86917184 -5.96901861 25.00448106 -10.94140625 24.2109375 C-14.61046633 22.3514721 -16.62197269 20.16923819 -17.94140625 16.2109375 C-18.55553146 12.19968931 -18.80398553 8.68496538 -16.70703125 5.1015625 C-12.26170453 -0.22402694 -7.01937185 -2.85294389 0 0 Z M-13.00390625 4.0859375 C-15.72642028 8.47708917 -16.08807176 12.17880828 -14.94140625 17.2109375 C-13.21354156 20.03835245 -12.03338768 20.55451888 -8.94140625 22.2109375 C-5.84715462 22.93473905 -4.23021571 22.73297075 -0.94140625 22.2109375 C2.01910249 19.91894347 2.01910249 19.91894347 4.05859375 17.2109375 C4.38859375 16.8809375 4.71859375 16.5509375 5.05859375 16.2109375 C5.5903175 10.40200731 5.5903175 10.40200731 3.18359375 5.2734375 C0.32637069 2.50025041 -1.36441371 2.00589852 -5.25390625 1.8359375 C-8.7674495 1.90394156 -9.8887763 2.17871508 -13.00390625 4.0859375 Z " fill="#0C1113" transform="translate(216.94140625,188.7890625)"/>
<path d="M0 0 C0.99 0 1.98 0 3 0 C3.33 4.95 3.66 9.9 4 15 C4.98742187 14.4946875 5.97484375 13.989375 6.9921875 13.46875 C8.28635176 12.81228987 9.58062845 12.15605133 10.875 11.5 C11.52597656 11.16613281 12.17695313 10.83226562 12.84765625 10.48828125 C17.7734375 8 17.7734375 8 20 8 C20 8.99 20 9.98 20 11 C18.73542969 11.48919922 18.73542969 11.48919922 17.4453125 11.98828125 C15.80175781 12.64376953 15.80175781 12.64376953 14.125 13.3125 C12.48917969 13.95638672 12.48917969 13.95638672 10.8203125 14.61328125 C7.75128691 15.82932375 7.75128691 15.82932375 6 19 C7.93625098 19.98163422 9.87404539 20.96022454 11.8125 21.9375 C13.43091797 22.75541016 13.43091797 22.75541016 15.08203125 23.58984375 C17.96211527 25.0585207 17.96211527 25.0585207 21 26 C21 26.66 21 27.32 21 28 C14.50857435 27.57664615 9.66507011 25.08900201 4 22 C4 24.31 4 26.62 4 29 C3.01 29 2.02 29 1 29 C-0.26693763 19.33960055 -0.08984092 9.72278418 0 0 Z " fill="#182127" transform="translate(397,184)"/>
<path d="M0 0 C0.83402344 0.01546875 1.66804688 0.0309375 2.52734375 0.046875 C5.10349861 0.25328494 7.54133565 0.69074351 10.0625 1.25 C10.11148437 2.13042969 10.16046875 3.01085937 10.2109375 3.91796875 C10.28570312 5.07941406 10.36046875 6.24085938 10.4375 7.4375 C10.50710938 8.58605469 10.57671875 9.73460937 10.6484375 10.91796875 C10.91430843 14.21899434 10.91430843 14.21899434 12.1640625 16.98828125 C13.0625 19.25 13.0625 19.25 12.0625 22.25 C10.7425 22.25 9.4225 22.25 8.0625 22.25 C7.10150391 22.73339844 7.10150391 22.73339844 6.12109375 23.2265625 C2.32183104 25.11538002 -1.80507159 24.79920442 -5.9375 24.25 C-9.44002011 22.20686327 -11.71111702 20.15212767 -12.9375 16.25 C-13.41107835 11.98779488 -13.23580613 9.8039971 -11.1875 6 C-7.75397805 1.80347317 -5.53608249 -0.17060347 0 0 Z M-8.9375 6.25 C-10.53836627 9.45173254 -10.43667089 12.77577059 -9.9375 16.25 C-8.14386089 19.0600346 -6.91869065 20.75940468 -3.9375 22.25 C0.32781653 22.74215191 2.6703952 22.43905053 6.5625 20.5625 C8.16155302 19.27238259 8.16155302 19.27238259 9.0625 17.25 C9.26597163 12.82716921 8.76521585 8.6132266 8.0625 4.25 C1.35097578 1.376916 -3.49574533 0.80824533 -8.9375 6.25 Z " fill="#080B0D" transform="translate(354.9375,188.75)"/>
<path d="M0 0 C0.99 0 1.98 0 3 0 C2.835 0.99 2.67 1.98 2.5 3 C1.44695146 10.36725391 1.44695146 10.36725391 3.0625 17.5 C5.04566454 19.28825805 5.04566454 19.28825805 8.375 19.5 C12.50128567 18.93085715 14.08924265 17.91075735 17 15 C18.28446919 12.43106162 18.32977144 10.23423663 18.5625 7.375 C18.64628906 6.37210938 18.73007813 5.36921875 18.81640625 4.3359375 C18.90728516 3.17964844 18.90728516 3.17964844 19 2 C19.99 2 20.98 2 22 2 C22.66 8.6 23.32 15.2 24 22 C23.01 22 22.02 22 21 22 C20.34 20.68 19.68 19.36 19 18 C18.154375 18.825 17.30875 19.65 16.4375 20.5 C13.83451164 22.66097147 12.97509618 23.00349527 9.4375 23.5 C5.79240629 22.96980455 3.86360465 22.29088372 1 20 C-1.16176716 16.66727563 -1.24141302 13.92094717 -1.1875 10 C-1.18105469 8.96875 -1.17460937 7.9375 -1.16796875 6.875 C-1.02449792 4.41931318 -0.7046041 2.34492245 0 0 Z " fill="#0E1417" transform="translate(229,190)"/>
<path d="M0 0 C0.99 0 1.98 0 3 0 C3.02578125 0.65226563 3.0515625 1.30453125 3.078125 1.9765625 C3.45154004 7.73054878 4.13957005 11.45831771 8 16 C11.6887638 18.45917586 14.7184429 18.81591937 19 18 C22.0220794 16.25549494 24.41651082 14.16697836 26 11 C26.2275015 9.12943209 26.40962811 7.25314042 26.5625 5.375 C26.64628906 4.37210938 26.73007813 3.36921875 26.81640625 2.3359375 C26.90728516 1.17964844 26.90728516 1.17964844 27 0 C27.99 0.33 28.98 0.66 30 1 C30.34573147 6.76219112 30.34446833 11.04096075 27 16 C23.52177888 19.47822112 20.87773605 20.54625711 16 21 C16 23.64 16 26.28 16 29 C15.34 29 14.68 29 14 29 C14 26.36 14 23.72 14 21 C13.113125 20.938125 12.22625 20.87625 11.3125 20.8125 C6.35595116 19.59674274 4.34194284 16.61958618 1.1875 12.8125 C-0.59259451 8.59648669 -0.23665462 4.51396782 0 0 Z " fill="#050809" transform="translate(166,184)"/>
<path d="M0 0 C10.56 0 21.12 0 32 0 C32 0.99 32 1.98 32 3 C27.38 3 22.76 3 18 3 C18 11.25 18 19.5 18 28 C17.01 28 16.02 28 15 28 C15 19.42 15 10.84 15 2 C10.05 2 5.1 2 0 2 C0 1.34 0 0.68 0 0 Z " fill="#121A1E" transform="translate(307,184)"/>
<path d="M0 0 C0 0.66 0 1.32 0 2 C-0.96421875 1.96519531 -1.9284375 1.93039063 -2.921875 1.89453125 C-4.18515625 1.86746094 -5.4484375 1.84039062 -6.75 1.8125 C-8.00296875 1.77769531 -9.2559375 1.74289063 -10.546875 1.70703125 C-14.15760043 2.01337108 -15.54744961 2.38313482 -18 5 C-18.58345476 8.04253508 -18.58345476 8.04253508 -18 11 C-14.86390109 13.09073261 -13.15590042 13.4496494 -9.5 14 C-5.84409958 14.5503506 -4.13609891 14.90926739 -1 17 C-0.6875 19.5 -0.6875 19.5 -1 22 C-3 24 -3 24 -5.6015625 24.1953125 C-6.59929687 24.17210937 -7.59703125 24.14890625 -8.625 24.125 C-10.12933594 24.09792969 -10.12933594 24.09792969 -11.6640625 24.0703125 C-12.43492187 24.04710937 -13.20578125 24.02390625 -14 24 C-14.33 23.01 -14.66 22.02 -15 21 C-11.7 21 -8.4 21 -5 21 C-5 20.01 -5 19.02 -5 18 C-5.90363281 17.81824219 -6.80726563 17.63648438 -7.73828125 17.44921875 C-8.91777344 17.19785156 -10.09726562 16.94648438 -11.3125 16.6875 C-12.48425781 16.44386719 -13.65601563 16.20023438 -14.86328125 15.94921875 C-17.91112846 15.02689388 -19.23347618 14.59709993 -21 12 C-21.6464894 6.98970718 -21.85291744 5.1135311 -18.75 1.0625 C-13.05330752 -3.21001936 -6.39121388 -3.09877037 0 0 Z " fill="#121A1E" transform="translate(393,189)"/>
<path d="M0 0 C0.77085937 -0.01417969 1.54171875 -0.02835938 2.3359375 -0.04296875 C4.84334888 0.20948393 6.45761902 0.93556533 8.625 2.1875 C8.625 2.8475 8.625 3.5075 8.625 4.1875 C7.66078125 4.15269531 6.6965625 4.11789063 5.703125 4.08203125 C4.43984375 4.05496094 3.1765625 4.02789062 1.875 4 C0.62203125 3.96519531 -0.6309375 3.93039063 -1.921875 3.89453125 C-5.53260043 4.20087108 -6.92244961 4.57063482 -9.375 7.1875 C-9.95845476 10.23003508 -9.95845476 10.23003508 -9.375 13.1875 C-6.07013117 15.39074589 -3.61410486 15.93176937 0.25 16.75 C6.52401823 18.08651823 6.52401823 18.08651823 7.625 19.1875 C7.875 21.625 7.875 21.625 7.625 24.1875 C4.31129 26.39664 3.2803979 26.41231553 -0.5625 26.3125 C-1.46355469 26.29445312 -2.36460937 26.27640625 -3.29296875 26.2578125 C-3.98003906 26.23460937 -4.66710937 26.21140625 -5.375 26.1875 C-5.375 25.1975 -5.375 24.2075 -5.375 23.1875 C-1.745 23.1875 1.885 23.1875 5.625 23.1875 C5.625 22.1975 5.625 21.2075 5.625 20.1875 C4.74457031 20.08953125 3.86414063 19.9915625 2.95703125 19.890625 C1.79558594 19.74109375 0.63414062 19.5915625 -0.5625 19.4375 C-1.71105469 19.29828125 -2.85960937 19.1590625 -4.04296875 19.015625 C-7.80010486 18.08184674 -9.68114059 16.94597227 -12.375 14.1875 C-13.24426902 9.20895923 -13.24426902 9.20895923 -12.375 6.1875 C-9.03881883 2.05022974 -5.22444246 0.04339238 0 0 Z " fill="#0A0F11" transform="translate(433.375,186.8125)"/>
<path d="M0 0 C0.99 0.33 1.98 0.66 3 1 C4.1875 4.5625 4.1875 4.5625 5 8 C5.78375 7.030625 6.5675 6.06125 7.375 5.0625 C8.91288705 3.16037654 9.79259913 2.10370043 12 1 C13.49756871 0.90500497 14.99942932 0.87012802 16.5 0.875 C17.69109375 0.87113281 17.69109375 0.87113281 18.90625 0.8671875 C21 1 21 1 23 2 C23 2.66 23 3.32 23 4 C21.87851562 4.03867188 21.87851562 4.03867188 20.734375 4.078125 C19.74953125 4.13484375 18.7646875 4.1915625 17.75 4.25 C16.77546875 4.29640625 15.8009375 4.3428125 14.796875 4.390625 C11.26700512 5.1597028 10.13576188 6.10146602 8 9 C6.88023521 12.2472854 6.88023521 12.2472854 6.25 15.75 C6.00765625 16.92046875 5.7653125 18.0909375 5.515625 19.296875 C5.34546875 20.18890625 5.1753125 21.0809375 5 22 C4.34 22 3.68 22 3 22 C1.83441535 14.67831776 0.75015582 7.37653219 0 0 Z " fill="#11181C" transform="translate(258,191)"/>
<path d="M0 0 C0.99 0 1.98 0 3 0 C3.04898437 0.80824219 3.09796875 1.61648437 3.1484375 2.44921875 C3.22320312 3.51785156 3.29796875 4.58648437 3.375 5.6875 C3.44460938 6.74324219 3.51421875 7.79898438 3.5859375 8.88671875 C3.86692197 11.99800071 3.86692197 11.99800071 5.1015625 14.70703125 C6 17 6 17 5 20 C3.68 20 2.36 20 1 20 C0.4225 20.33 -0.155 20.66 -0.75 21 C-4.17797017 22.5235423 -7.27039668 22.12432011 -11 22 C-11 21.34 -11 20.68 -11 20 C-10.38511719 19.89042969 -9.77023437 19.78085938 -9.13671875 19.66796875 C-8.32847656 19.50941406 -7.52023437 19.35085937 -6.6875 19.1875 C-5.88699219 19.03667969 -5.08648437 18.88585937 -4.26171875 18.73046875 C-1.56475279 17.85942793 -0.5088501 17.42210147 1 15 C1.05546517 12.32891426 0.96547069 9.94707177 0.6875 7.3125 C0.62626953 6.61060547 0.56503906 5.90871094 0.50195312 5.18554688 C0.34897376 3.4557033 0.17637398 1.72761503 0 0 Z " fill="#080C0E" transform="translate(362,191)"/>
<path d="M0 0 C0.99 0.33 1.98 0.66 3 1 C3.34573147 6.76219112 3.34446833 11.04096075 0 16 C-2.6875 18.375 -2.6875 18.375 -5 20 C-5.33 19.01 -5.66 18.02 -6 17 C-5.21625 16.175 -4.4325 15.35 -3.625 14.5 C0.1739617 10.3537648 -0.1053182 5.38080261 0 0 Z " fill="#192329" transform="translate(193,184)"/>
<path d="M0 0 C0.09796875 0.68707031 0.1959375 1.37414062 0.296875 2.08203125 C0.52117187 3.43361328 0.52117187 3.43361328 0.75 4.8125 C0.88921875 5.70582031 1.0284375 6.59914062 1.171875 7.51953125 C2.17827304 10.53397822 3.46834331 11.20417035 6 13 C6 13.99 6 14.98 6 16 C2.53371274 15.03714243 1.06582992 14.07650505 -1.3125 11.3125 C-3.22487823 7.55857236 -3.33242149 5.15526857 -3 1 C-1 0 -1 0 0 0 Z " fill="#161F24" transform="translate(345,197)"/>
<path d="M0 0 C0.66 0 1.32 0 2 0 C2.103125 1.11375 2.20625 2.2275 2.3125 3.375 C2.539375 4.57125 2.76625 5.7675 3 7 C5.91216721 9.25619542 5.91216721 9.25619542 9.625 9.5 C10.73875 9.665 11.8525 9.83 13 10 C13.33 10.66 13.66 11.32 14 12 C12.58376784 12.05447047 11.16691809 12.09300508 9.75 12.125 C8.96109375 12.14820313 8.1721875 12.17140625 7.359375 12.1953125 C4.75385683 11.97962391 3.20013023 11.3921178 1 10 C-0.60725635 6.78548731 -0.05748185 3.56387464 0 0 Z " fill="#0C1215" transform="translate(372,193)"/>
<path d="M0 0 C0.99 0 1.98 0 3 0 C2.34 5.94 1.68 11.88 1 18 C-1 16 -1 16 -1.23046875 13.3203125 C-1.21628906 12.26585937 -1.20210937 11.21140625 -1.1875 10.125 C-1.18105469 9.07570312 -1.17460937 8.02640625 -1.16796875 6.9453125 C-1.02619538 4.45933296 -0.7160399 2.37152414 0 0 Z " fill="#0B1012" transform="translate(229,190)"/>
<path d="M0 0 C0.495 0.639375 0.99 1.27875 1.5 1.9375 C4.98806387 4.81515269 7.53461041 4.70230736 12 5 C12 5.99 12 6.98 12 8 C7.11575508 8.28730852 3.78330883 8.32472595 0 5 C-0.3125 2.3125 -0.3125 2.3125 0 0 Z " fill="#172126" transform="translate(230,205)"/>
<path d="M0 0 C0 0.99 0 1.98 0 3 C-4.29 4.65 -8.58 6.3 -13 8 C-13 7.01 -13 6.02 -13 5 C-11.21046815 4.16209211 -9.41830305 3.32980604 -7.625 2.5 C-6.62726563 2.0359375 -5.62953125 1.571875 -4.6015625 1.09375 C-2 0 -2 0 0 0 Z " fill="#11181C" transform="translate(417,192)"/>
<path d="M0 0 C4.72065967 1.54269924 9.41664092 3.07794619 14 5 C14 5.66 14 6.32 14 7 C8.22621075 6.5188509 4.04140164 4.81532819 -1 2 C-0.67 1.34 -0.34 0.68 0 0 Z " fill="#0F1619" transform="translate(404,205)"/>
<path d="M0 0 C0.99 0 1.98 0 3 0 C3.33 3.63 3.66 7.26 4 11 C2.68 10.67 1.36 10.34 0 10 C0 6.7 0 3.4 0 0 Z " fill="#192329" transform="translate(166,184)"/>
<path d="M0 0 C0.99 0 1.98 0 3 0 C1.64978174 4.41889613 -0.26115668 6.34345343 -4 9 C-4.33 8.01 -4.66 7.02 -5 6 C-2.75 2.8125 -2.75 2.8125 0 0 Z " fill="#131B20" transform="translate(192,195)"/>
<path d="M0 0 C3.69418201 1.231394 5.35109746 3.20791354 8 6 C7.67 6.99 7.34 7.98 7 9 C3.73539027 7.19587357 2.11070205 6.16605307 0 3 C0 2.01 0 1.02 0 0 Z " fill="#0F1519" transform="translate(168,195)"/>
<path d="M0 0 C0.99 0 1.98 0 3 0 C3.33 4.29 3.66 8.58 4 13 C3.34 13 2.68 13 2 13 C0.71553081 10.43106162 0.67022856 8.23423663 0.4375 5.375 C0.35371094 4.37210938 0.26992188 3.36921875 0.18359375 2.3359375 C0.12300781 1.56507813 0.06242187 0.79421875 0 0 Z " fill="#010202" transform="translate(362,191)"/>
<path d="M0 0 C1.41623216 -0.05447047 2.83308191 -0.09300508 4.25 -0.125 C5.03890625 -0.14820313 5.8278125 -0.17140625 6.640625 -0.1953125 C9.20731941 0.0171622 10.7916067 0.71345895 13 2 C13 2.66 13 3.32 13 4 C11.20741442 3.91306859 9.41584856 3.80489496 7.625 3.6875 C6.62726563 3.62949219 5.62953125 3.57148438 4.6015625 3.51171875 C3.74304688 3.34285156 2.88453125 3.17398438 2 3 C1.34 2.01 0.68 1.02 0 0 Z " fill="#1C272D" transform="translate(429,187)"/>
<path d="M0 0 C4.16138263 -0.08159574 7.9472484 0.01751476 12 1 C11.01 1.33 10.02 1.66 9 2 C8.67 2.66 8.34 3.32 8 4 C3.545 3.01 3.545 3.01 -1 2 C-0.67 1.34 -0.34 0.68 0 0 Z " fill="#101619" transform="translate(353,189)"/>
<path d="M0 0 C1.21816406 0.03480469 1.21816406 0.03480469 2.4609375 0.0703125 C3.68683594 0.09738281 3.68683594 0.09738281 4.9375 0.125 C5.87722656 0.15980469 5.87722656 0.15980469 6.8359375 0.1953125 C3.22946864 2.03046258 -0.43829735 3.61902724 -4.1640625 5.1953125 C-4.1640625 1.64330594 -3.69375211 0.33337113 0 0 Z " fill="#050708" transform="translate(207.1640625,188.8046875)"/>
<path d="M0 0 C3.3 0.33 6.6 0.66 10 1 C10 1.66 10 2.32 10 3 C7.03 3 4.06 3 1 3 C0.67 2.01 0.34 1.02 0 0 Z " fill="#10171B" transform="translate(378,210)"/>
<path d="M0 0 C0.33 0 0.66 0 1 0 C1.33 2.97 1.66 5.94 2 9 C1.01 9 0.02 9 -1 9 C-1.33 7.35 -1.66 5.7 -2 4 C-1.34 4 -0.68 4 0 4 C0 2.68 0 1.36 0 0 Z " fill="#162025" transform="translate(251,203)"/>
<path d="M0 0 C0.99 0.33 1.98 0.66 3 1 C3 2.65 3 4.3 3 6 C1.02 6.99 1.02 6.99 -1 8 C-1 7.01 -1 6.02 -1 5 C-0.34 5 0.32 5 1 5 C0.67 3.35 0.34 1.7 0 0 Z " fill="#070A0C" transform="translate(438,205)"/>
<path d="M0 0 C6.75 -0.125 6.75 -0.125 9 1 C9 1.66 9 2.32 9 3 C6.03 2.67 3.06 2.34 0 2 C0 1.34 0 0.68 0 0 Z " fill="#080B0D" transform="translate(272,192)"/>
<path d="M0 0 C1.35015859 4.05047576 0.62084998 6.7920168 0 11 C-0.33 11 -0.66 11 -1 11 C-1.144375 10.05125 -1.28875 9.1025 -1.4375 8.125 C-1.82935399 5.1065506 -1.82935399 5.1065506 -3 3 C-2.01 2.01 -1.02 1.02 0 0 Z " fill="#233139" transform="translate(202,193)"/>
<path d="M0 0 C0 0.66 0 1.32 0 2 C-3.63 1.67 -7.26 1.34 -11 1 C-11 0.67 -11 0.34 -11 0 C-6.98195309 -0.84098656 -3.98196457 -1.05404945 0 0 Z " fill="#162025" transform="translate(393,189)"/>
</svg>
